<svg xmlns="http://www.w3.org/2000/svg" style="display:none;">

  <!-- dashboard / speedometer -->
  <symbol id="icon-dashboard" viewBox="0 0 16 16">
    <path d="M8 4a.5.5 0 0 1 .5.5V6a.5.5 0 0 1-1 0V4.5A.5.5 0 0 1 8 4M3.732
             5.732a.5.5 0 0 1 .707 0l.915.914a.5.5 0 1 1-.708.708l-.914-.915a.5.5
             0 0 1 0-.707M2 10a.5.5 0 0 1 .5-.5h1.586a.5.5 0 0 1 0 1H2.5A.5.5
             0 0 1 2 10m9.5 0a.5.5 0 0 1 .5-.5h1.5a.5.5 0 0 1 0 1H12a.5.5 0 0
             1-.5-.5m.754-4.246a.389.389 0 0 0-.527-.02L7.547 9.31a.91.91 0 1 0
             1.302 1.258l3.434-4.297a.389.389 0 0 0-.029-.518z"/>
    <path fill-rule="evenodd" d="M0 10a8 8 0 1 1 15.547 2.661c-.442 1.253-1.845
             1.602-2.932 1.25C11.309 13.488 9.475 13 8 13c-1.474
             0-3.31.488-4.615.911-1.087.352-2.49.003-2.932-1.25A8 8 0 0 1 0
             10m8-7a7 7 0 0 0-6.603 9.329c.203.575.923.876 1.68.63C4.397
             12.533 6.358 12 8 12s3.604.532 4.923.96c.757.245 1.477-.056
             1.68-.631A7 7 0 0 0 8 3"/>
  </symbol>

  <!-- bar-chart / experiments -->
  <symbol id="icon-experiments" viewBox="0 0 16 16">
    <path d="M4 11H2v3h2zm5-4H7v7h2zm5-5h-2v12h2zm-2-1a1 1 0 0 0-1
             1v12a1 1 0 0 0 1 1h2a1 1 0 0 0 1-1V2a1 1 0 0 0-1-1zM6
             7a1 1 0 0 1 1-1h2a1 1 0 0 1 1 1v7a1 1 0 0 1-1 1H7a1 1
             0 0 1-1-1zm-5 4a1 1 0 0 1 1-1h2a1 1 0 0 1 1 1v3a1 1 0
             0 1-1 1H2a1 1 0 0 1-1-1z"/>
  </symbol>

  <!-- box-seam / models -->
  <symbol id="icon-models" viewBox="0 0 16 16">
    <path d="M8.186 1.113a.5.5 0 0 0-.372 0L1.846
             3.5l2.404.961L10.404 2zm3.564 1.426L5.596
             5 8 5.961 14.154 3.5zm3.25 1.7-6.5
             2.6v7.922l6.5-2.6V4.24zM7.5
             14.762V6.838L1 4.239v7.923zM7.443.184a1.5 1.5 0 0 1
             1.114 0l7.129 2.852A.5.5 0 0 1 16
             3.5v8.662a1 1 0 0 1-.629.928l-7.185
             2.874a.5.5 0 0 1-.372 0L.63
             13.09a1 1 0 0 1-.63-.928V3.5a.5.5 0 0 1
             .314-.464z"/>
  </symbol>

  <!-- archive / artifacts -->
  <symbol id="icon-artifacts" viewBox="0 0 16 16">
    <path d="M0 2a1 1 0 0 1 1-1h14a1 1 0 0 1 1 1v2a1 1 0 0 1-1
             1v7.5a2.5 2.5 0 0 1-2.5 2.5h-9A2.5 2.5 0 0 1 1
             12.5V5a1 1 0 0 1-1-1zm2 3v7.5A1.5 1.5 0 0 0 3.5
             14h9a1.5 1.5 0 0 0 1.5-1.5V5zm13-3H1v2h14zM5
             7.5a.5.5 0 0 1 .5-.5h5a.5.5 0 0 1 0 1h-5a.5.5
             0 0 1-.5-.5"/>
  </symbol>

  <!-- box-arrow-right / logout -->
  <symbol id="icon-logout" viewBox="0 0 16 16">
    <path fill-rule="evenodd" d="M10 12.5a.5.5 0 0 1-.5.5h-8a.5.5
             0 0 1-.5-.5v-9a.5.5 0 0 1 .5-.5h8a.5.5 0 0 1 .5.5v2a.5.5
             0 0 0 1 0v-2A1.5 1.5 0 0 0 9.5 2h-8A1.5 1.5 0 0 0 0
             3.5v9A1.5 1.5 0 0 0 1.5 14h8a1.5 1.5 0 0 0
             1.5-1.5v-2a.5.5 0 0 0-1 0z"/>
    <path fill-rule="evenodd" d="M15.854 8.354a.5.5 0 0 0
             0-.708l-3-3a.5.5 0 0 0-.708.708L14.293
             7.5H5.5a.5.5 0 0 0 0 1h8.793l-2.147
             2.146a.5.5 0 0 0 .708.708z"/>
  </symbol>

  <!-- trophy / best accuracy -->
  <symbol id="icon-trophy" viewBox="0 0 16 16">
    <path d="M2.5.5A.5.5 0 0 1 3 0h10a.5.5 0 0 1 .5.5q0
             .807-.034 1.536a3 3 0 1 1-1.133 5.89c-.79
             1.865-1.878 2.777-2.833 3.011v2.173l1.425.356c.194.048.377.135.
             537.255L13.3 15.1a.5.5 0 0 1-.3.9H3a.5.5 0 0
             1-.3-.9l1.838-1.379c.16-.12.343-.207.537-.255L6.5
             13.11v-2.173c-.955-.234-2.043-1.146-2.833-3.012a3 3 0 1
             1-1.132-5.89A33 33 0 0 1 2.5.5m.099 2.54a2 2 0 0 0
             .72 3.935c-.333-1.05-.588-2.346-.72-3.935m10.083
             3.935a2 2 0 0 0 .72-3.935c-.133 1.59-.388
             2.885-.72 3.935M3.504 1q.01.775.056
             1.469c.13 2.028.457 3.546.87 4.667C5.294 9.48 6.484 10
             8 10s2.706-.52 3.57-2.864c.413-1.12.74-2.64.87-4.667Q12.49
             1.775 12.496 1z"/>
  </symbol>
    <!-- cpu / active models -->
  <symbol id="icon-cpu" viewBox="0 0 16 16">
    <path d="M5 0a.5.5 0 0 1 .5.5V2h1V.5a.5.5 0 0 1 1
             0V2h1V.5a.5.5 0 0 1 1 0V2h1V.5a.5.5 0 0 1 1
             0V2A2.5 2.5 0 0 1 14 4.5h1.5a.5.5 0 0 1 0
             1H14v1h1.5a.5.5 0 0 1 0 1H14v1h1.5a.5.5 0 0 1
             0 1H14v1h1.5a.5.5 0 0 1 0 1H14A2.5 2.5 0 0 1
             11.5 14v1.5a.5.5 0 0 1-1 0V14h-1v1.5a.5.5 0 0
             1-1 0V14h-1v1.5a.5.5 0 0 1-1 0V14h-1v1.5a.5.5
             0 0 1-1 0V14A2.5 2.5 0 0 1 2
             11.5H.5a.5.5 0 0 1 0-1H2v-1H.5a.5.5 0 0 1
             0-1H2v-1H.5a.5.5 0 0 1 0-1H2v-1H.5a.5.5 0 0
             1 0-1H2A2.5 2.5 0 0 1 4.5 2V.5A.5.5 0 0 1 5
             0m-.5 3A1.5 1.5 0 0 0 3 4.5v7A1.5 1.5 0 0 0
             4.5 13h7a1.5 1.5 0 0 0 1.5-1.5v-7A1.5 1.5 0
             0 0 11.5 3zM5 6.5A1.5 1.5 0 0 1 6.5 5h3A1.5
             1.5 0 0 1 11 6.5v3A1.5 1.5 0 0 1 9.5 11h-3A1.5
             1.5 0 0 1 5 9.5zM6.5 6a.5.5 0 0 0-.5.5v3a.5.5
             0 0 0 .5.5h3a.5.5 0 0 0 .5-.5v-3a.5.5 0 0
             0-.5-.5z"/>
  </symbol>

  <!-- play-circle / total runs -->
  <symbol id="icon-runs" viewBox="0 0 16 16">
    <path d="M8 15A7 7 0 1 1 8 1a7 7 0 0 1 0 14m0 1A8 8 0 1 0 8
             0a8 8 0 0 0 0 16"/>
    <path d="M6.271 5.055a.5.5 0 0 1 .52.038l3.5
             2.5a.5.5 0 0 1 0 .814l-3.5
             2.5A.5.5 0 0 1 6 10.5v-5a.5.5 0 0 1
             .271-.445"/>
  </symbol>

  <!-- download -->
  <symbol id="icon-download" viewBox="0 0 16 16">
    <path d="M.5 9.9a.5.5 0 0 1 .5.5v2.5a1 1 0 0 0 1
             1h12a1 1 0 0 0 1-1v-2.5a.5.5 0 0 1 1
             0v2.5a2 2 0 0 1-2 2H2a2 2 0 0 1-2-2v-2.5a.5.5
             0 0 1 .5-.5"/>
    <path d="M7.646 11.854a.5.5 0 0 0 .708
             0l3-3a.5.5 0 0 0-.708-.708L8.5
             10.293V1.5a.5.5 0 0 0-1 0v8.793L5.354
             8.146a.5.5 0 1 0-.708.708z"/>
  </symbol>

  <!-- moon (тёмная тема) -->
  <symbol id="icon-moon" viewBox="0 0 16 16">
    <path d="M6 .278a.77.77 0 0 1 .08.858 7.2 7.2 0 0
             0-.878 3.46c0 4.021 3.278 7.277 7.318
             7.277q.792-.001 1.533-.16a.787.787 0 0 1
             .81.316.733.733 0 0 1-.031.893A8.35 8.35 0 0
             1 8.344 16C3.734 16 0 12.286 0 7.71 0 4.266
             2.114 1.312 5.124.06A.75.75 0 0 1 6 .278"/>
  </symbol>

  <!-- sun (светлая тема) -->
  <symbol id="icon-sun" viewBox="0 0 16 16">
    <path d="M8 11a3 3 0 1 1 0-6 3 3 0 0 1 0 6m0
             1a4 4 0 1 0 0-8 4 4 0 0 0 0 8M8
             0a.5.5 0 0 1 .5.5v2a.5.5 0 0 1-1
             0v-2A.5.5 0 0 1 8 0m0 13a.5.5 0 0 1
             .5.5v2a.5.5 0 0 1-1 0v-2A.5.5 0 0 1 8
             13m8-5a.5.5 0 0 1-.5.5h-2a.5.5 0 0 1
             0-1h2a.5.5 0 0 1 .5.5M3 8a.5.5 0 0
             1-.5.5h-2a.5.5 0 0 1 0-1h2A.5.5 0 0 1
             3 8m10.657-5.657a.5.5 0 0 1 0
             .707l-1.414 1.415a.5.5 0 1 1-.707-.708l1.414-1.414a.5.5
             0 0 1 .707 0m-9.193 9.193a.5.5 0 0 1 0
             .707L3.05 13.657a.5.5 0 0 1-.707-.707l1.414-1.414a.5.5
             0 0 1 .707 0m9.193 2.121a.5.5 0 0
             1-.707 0l-1.414-1.414a.5.5 0 0 1
             .707-.707l1.414 1.414a.5.5 0 0 1 0
             .707M4.464 4.465a.5.5 0 0 1-.707
             0L2.343 3.05a.5.5 0 1 1
             .707-.707l1.414 1.414a.5.5 0 0 1 0 .708"/>
  </symbol>

  <symbol id="icon-file-code" viewBox="0 0 16 16">
    <path d="M14 4.5V14a2 2 0 0 1-2 2H4a2 2 0 0 1-2-2V2a2
             2 0 0 1 2-2h5.5zm-3 0A1.5 1.5 0 0 1 9.5 3V1L14
             5.5zM8.646 6.646a.5.5 0 0 1 .708.708L7.707
             9l1.647 1.646a.5.5 0 0 1-.708.708l-2-2a.5.5
             0 0 1 0-.708zm-1.292 0-2 2a.5.5 0 0 0 0
             .708l2 2a.5.5 0 0 0 .708-.708L6.293
             9l1.647-1.646a.5.5 0 0 0-.708-.708z"/>
  </symbol>
  <symbol id="icon-file-image" viewBox="0 0 16 16">
    <path d="M6.502 7a1.5 1.5 0 1 0 0-3 1.5 1.5 0 0 0 0 3"/>
    <path d="M14 14a2 2 0 0 1-2 2H4a2 2 0 0 1-2-2V2a2
             2 0 0 1 2-2h5.5L14 4.5zM4 0a1 1 0 0 0-1
             1v10l2.224-2.224a.5.5 0 0 1
             .61-.075L8 10.77l3.157-2.61a.5.5 0 0 1
             .646.047L13 9.5V4.5h-2A1.5 1.5 0 0 1 9.5
             3V1z"/>
  </symbol>

  <symbol id="icon-file-spreadsheet" viewBox="0 0 16 16">
    <path d="M14 14V4.5L9.5 0H4a2 2 0 0 0-2 2v12a2 2 0 0
             0 2 2h8a2 2 0 0 0 2-2M9.5 3A1.5 1.5 0 0 0 11
             4.5h2V9H3V2a1 1 0 0 1 1-1zM3 12v-2h2v2zm0
             1v2h2v-2zm3 2v-2h3v2zm3 0h3v-2h-3zm3-3v-2H9v2zm0-3H9V9h3zm-4
             3H6v-2h3zm0-3V9H6v2z"/>
  </symbol>

</svg>